<svg xmlns="http://www.w3.org/2000/svg" viewBox="0 0 820 500" role="img" aria-labelledby="title desc">
  <title id="title">Points earned by category on 7 October 2026</title>
  <desc id="desc">Grouped bar chart. Each category has a maximum of 10 points. Gemini scored 10, 10, 10 and 8. ChatGPT scored 10, 9, 10 and 7. Claude scored 10, 9, 10 and 10. Perplexity scored 10, 9, 10 and 7. The categories are Grounding, Hallucinations, Context and Error handling.</desc>
  <rect width="820" height="500" fill="#f6f7f9"/>
  <text x="40" y="40" fill="#1c1e21" font-family="Segoe UI, Helvetica, Arial, sans-serif" font-size="22" font-weight="650">Points by category</text>
  <text x="40" y="66" fill="#4b5160" font-family="Segoe UI, Helvetica, Arial, sans-serif" font-size="14">7 October 2026. Five cases in each category. Maximum 10 points.</text>

  <g font-family="Segoe UI, Helvetica, Arial, sans-serif" font-size="13" fill="#5c6370">
    <line x1="64" y1="150" x2="760" y2="150" stroke="#d5d8e0"/>
    <line x1="64" y1="260" x2="760" y2="260" stroke="#e4e7ee"/>
    <line x1="64" y1="370" x2="760" y2="370" stroke="#1c1e21"/>
    <text x="52" y="154" text-anchor="end">10</text>
    <text x="52" y="264" text-anchor="end">5</text>
    <text x="52" y="374" text-anchor="end">0</text>
  </g>

  <g font-family="Segoe UI, Helvetica, Arial, sans-serif" font-size="12" fill="#1c1e21" text-anchor="middle">
    <g fill="#1a73e8">
      <rect x="96" y="150" width="26" height="220" rx="3"/>
      <rect x="260" y="150" width="26" height="220" rx="3"/>
      <rect x="424" y="150" width="26" height="220" rx="3"/>
      <rect x="588" y="194" width="26" height="176" rx="3"/>
    </g>
    <g fill="#0f8f6f">
      <rect x="130" y="150" width="26" height="220" rx="3"/>
      <rect x="294" y="172" width="26" height="198" rx="3"/>
      <rect x="458" y="150" width="26" height="220" rx="3"/>
      <rect x="622" y="216" width="26" height="154" rx="3"/>
    </g>
    <g fill="#c45c26">
      <rect x="164" y="150" width="26" height="220" rx="3"/>
      <rect x="328" y="172" width="26" height="198" rx="3"/>
      <rect x="492" y="150" width="26" height="220" rx="3"/>
      <rect x="656" y="150" width="26" height="220" rx="3"/>
    </g>
    <g fill="#1f6f78">
      <rect x="198" y="150" width="26" height="220" rx="3"/>
      <rect x="362" y="172" width="26" height="198" rx="3"/>
      <rect x="526" y="150" width="26" height="220" rx="3"/>
      <rect x="690" y="216" width="26" height="154" rx="3"/>
    </g>
    <g fill="#1c1e21">
      <text x="109" y="142">10</text><text x="143" y="142">10</text><text x="177" y="142">10</text><text x="211" y="142">10</text>
      <text x="273" y="142">10</text><text x="307" y="164">9</text><text x="341" y="164">9</text><text x="375" y="164">9</text>
      <text x="437" y="142">10</text><text x="471" y="142">10</text><text x="505" y="142">10</text><text x="539" y="142">10</text>
      <text x="601" y="186">8</text><text x="635" y="208">7</text><text x="669" y="142">10</text><text x="703" y="208">7</text>
    </g>
  </g>

  <g font-family="Segoe UI, Helvetica, Arial, sans-serif" font-size="14" fill="#1c1e21" text-anchor="middle">
    <text x="160" y="398">Grounding</text>
    <text x="324" y="398">Hallucinations</text>
    <text x="488" y="398">Context</text>
    <text x="652" y="398">Error handling</text>
  </g>

  <g font-family="Segoe UI, Helvetica, Arial, sans-serif" font-size="14" fill="#1c1e21">
    <rect x="96" y="440" width="14" height="14" rx="2" fill="#1a73e8"/>
    <text x="116" y="452">Gemini</text>
    <rect x="230" y="440" width="14" height="14" rx="2" fill="#0f8f6f"/>
    <text x="250" y="452">ChatGPT</text>
    <rect x="380" y="440" width="14" height="14" rx="2" fill="#c45c26"/>
    <text x="400" y="452">Claude</text>
    <rect x="510" y="440" width="14" height="14" rx="2" fill="#1f6f78"/>
    <text x="530" y="452">Perplexity</text>
  </g>
</svg>
